PathFileType	4	(X/Y/Z)	Patient4_TMGait_0pt8_01_left_35.trc.trc
DataRate	CameraRate	NumFrames	NumMarkers	Units	OrigDataRate	OrigDataStartFrame	OrigNumFrames
88.607594936709	88.607594936709	4	33	mm	88.607594936709	89	       141
Frame#	Time	Sacral			L.Shoulder			Chest			R.Shoulder			Neck			R.ASIS			L.ASIS			R.Thigh.Superior			R.Thigh.Lateral			R.Thigh.Inferior			R.Patella			L.Thigh.Superior			L.Thigh.Lateral			L.Thigh.Inferior			L.Patella			L.Shank.Superior			L.Shank.Lateral			L.Shank.Inferior			R.Shank.Superior			R.Shank.Lateral			R.Shank.Inferior			R.Heel			R.Midfoot.Superior			R.Midfoot.Lateral			R.Toe			L.Heel			L.Midfoot.Lateral			L.Midfoot.Superior			L.Toe			L.Elbow			L.Wrist			R.Elbow			R.Wrist			
		X1	Y1	Z1	X2	Y2	Z2	X3	Y3	Z3	X4	Y4	Z4	X5	Y5	Z5	X6	Y6	Z6	X7	Y7	Z7	X8	Y8	Z8	X9	Y9	Z9	X10	Y10	Z10	X11	Y11	Z11	X12	Y12	Z12	X13	Y13	Z13	X14	Y14	Z14	X15	Y15	Z15	X16	Y16	Z16	X17	Y17	Z17	X18	Y18	Z18	X19	Y19	Z19	X20	Y20	Z20	X21	Y21	Z21	X22	Y22	Z22	X23	Y23	Z23	X24	Y24	Z24	X25	Y25	Z25	X26	Y26	Z26	X27	Y27	Z27	X28	Y28	Z28	X29	Y29	Z29	X30	Y30	Z30	X31	Y31	Z31	X32	Y32	Z32	X33	Y33	Z33	

89	39.603142857143	898.212159211317	994.637501144813	497.461848894580	1066.963474133116	1431.805296365987	325.515902030901	1169.265653267393	1360.883774192082	486.635677395517	1080.192566859245	1425.574055334668	661.163499475651	1043.722522861756	1487.144610846041	481.860590779485	1129.976247645765	933.998705501597	612.768549796863	1110.025234881380	955.199717003741	336.304026866610	1197.701550573434	750.051102241948	583.570671569116	1132.190852401247	631.420147660941	642.391402625840	1219.415177048198	590.160449148589	565.207221831674	1233.769045404050	499.137214903842	572.677858914285	1139.587287019969	731.647552530276	349.948173372427	1041.602760307720	623.106152422312	286.239807448065	1127.950041675880	531.910322029643	334.802154755189	1113.733397157783	446.299695138904	329.883259290825	1038.543692424346	393.683063281849	329.446063629329	890.953409040345	366.126048896135	290.418095712707	868.799667804600	239.471000075635	347.969226386052	1206.640258663377	407.868661309002	578.383334857647	1137.746901121786	301.842717318648	639.509403683252	1183.242329778670	208.140929266236	576.735088090671	1053.540892617640	42.957798420609	544.972984874521	1225.035244087066	98.924576610355	582.790932956422	1136.523872979984	37.602487784204	620.734193021403	1344.392636210650	46.501391172682	610.410111562770	675.618787507505	193.811432035845	399.756167195222	722.232525941604	140.628822579366	317.449059979751	829.254628417884	140.541519614825	331.058277002564	894.908683196839	31.859568738787	301.803758426839	1111.576363183110	1100.540086144642	174.080152250295	1365.854388778537	1097.435187617834	198.085187039248	958.133730562524	1096.197455140394	753.202621175534	937.337708280797	838.132347331501	769.039108650363	
90	39.614428571429	898.069362431783	995.831489858108	500.928961961464	1064.592601686533	1433.027820907769	327.498507554457	1168.914857450817	1362.201741745988	487.406219852118	1081.781978391540	1426.559435143674	662.994684691021	1043.241292675792	1488.246615998783	484.138565388284	1130.631023117538	935.084679287682	614.233742000929	1109.099651253550	956.130101736821	337.942188073443	1196.082103658800	748.801552031093	586.499878847569	1128.253500969401	631.146456746817	643.869340100822	1215.205816007029	589.106674126714	566.721336290961	1228.324496618937	498.095646610129	573.452775739223	1144.159316137051	734.880209592319	351.693617635782	1050.465506524232	624.000641417100	287.042001761569	1139.484987646839	534.863453265641	335.721033873218	1126.826726529209	448.229493462182	330.371893736933	1050.317096062727	395.517489734161	329.907711005803	901.865321480134	371.953855149506	291.044470311011	876.315737535692	245.937678158933	348.587421263330	1200.384319478344	407.167883706578	579.132691425912	1130.736052999532	301.574722508058	639.942899638539	1175.331363095511	207.692584608661	576.998748162301	1044.570506011897	42.973782131332	545.083216724612	1216.117309398876	98.877765188411	583.017381065009	1127.521383797499	37.594207823165	620.827997899771	1335.419097043806	46.235227103546	610.640478903690	682.103851482317	207.241147107062	400.607510220610	726.558616452379	152.433809444688	317.983524453668	833.827619383824	147.707043358397	331.507843304545	894.525885704576	33.202320220645	301.427091793026	1103.298559856852	1098.851226429769	179.468373218680	1357.800484304487	1083.371199707851	200.410821672052	967.237509669650	1094.033294438322	756.925715944845	956.862405744247	835.155606054622	772.576296452416	
91	39.625714285714	897.760065067541	997.017610896626	504.299260276993	1061.966767116488	1434.157351534068	329.350745541943	1168.418542058545	1363.412108509659	487.942965393670	1083.406850371000	1427.420113548402	664.692496090265	1042.714496118113	1489.280647886703	486.336758158933	1131.085549850741	936.089296556921	615.516014222232	1107.872860327868	957.042221407620	339.517710468463	1194.108188219352	747.592812201497	589.025221387259	1124.229003338758	630.927281498962	645.250621764565	1210.689902791330	588.076178875999	567.970747847139	1222.543034432495	497.092346062103	574.108772101134	1148.390455481499	738.402650850523	353.431343063799	1059.039699838392	625.386817744954	287.765741887632	1150.599983476435	538.432119877394	336.631316764076	1139.718027669491	450.868988397028	330.847553662653	1062.238405836048	397.864303989123	330.285804119453	913.127546044475	377.482886525972	291.660855786032	884.950002803656	251.966667199707	349.150140837232	1193.881232445392	406.501683575040	579.765276668392	1123.615151724604	301.309805952695	640.336496751218	1167.329105005270	207.272157920765	577.197883953245	1035.558429327294	43.011425434125	545.185312103578	1207.158278443525	98.755613800023	583.167238714560	1118.487379416354	37.583305009244	620.901733107701	1326.435970925783	45.880269480690	610.813389720984	690.125208627743	218.579755941109	401.499675620271	732.839323317957	162.728534781002	318.512254370645	840.184222640108	154.448108081028	331.909022263139	896.952817078735	35.228700046037	300.912191953962	1094.946431146508	1097.233751795824	184.791928783406	1348.961795842705	1068.153738784983	202.679448298926	976.800105697123	1091.856823962993	760.568573537608	977.496388212225	832.516739296051	775.890352727915	
92	39.637000000000	897.303507118281	998.189562159474	507.562670639779	1059.159195249706	1435.200501667217	331.073161674122	1167.795129689315	1364.515324940120	488.269667344099	1085.055997250998	1428.183775354303	666.246360805676	1042.165965327001	1490.260944820086	488.439491816918	1131.346648313450	937.034305201630	616.647448909115	1106.334914141997	957.966573827203	341.056142161470	1191.824406090779	746.501031490139	591.044073569227	1120.211670441720	630.796650123334	646.543747607429	1205.939069360538	587.096551510065	568.947222246729	1216.495660275092	496.144161719268	574.662851504325	1152.235064772930	742.219389945508	355.148972920829	1067.222606614038	627.277195291132	288.408791768060	1161.207668615384	542.610999246492	337.451889314025	1152.306125219086	454.227616542548	331.201183779287	1074.238947759089	400.704464092972	330.510080671512	924.644439254286	382.546833121558	292.214022583721	894.747858907670	257.321368077147	349.580862862090	1187.195975987696	405.883393627372	580.305375751742	1116.420734269865	301.070750618989	640.719076199645	1159.262936474717	206.889107953608	577.353551092252	1026.513637436149	43.071810098878	545.289584628980	1198.168239952219	98.589617585828	583.269608553771	1109.430898497649	37.577454785062	620.970364594110	1317.443989998980	45.475002965425	610.948354949144	699.650309395654	227.391414386199	402.349776785709	741.124239490836	171.055980368873	318.968573600384	848.453135336637	160.409443662249	332.184497769615	902.493204459308	37.764570100165	300.239760172318	1086.566131366492	1095.689039423884	190.026148511932	1339.205986392629	1051.900958124390	204.903373474976	986.864575417428	1089.703448138780	764.089451417765	999.176760681993	830.346765559042	778.937396635754	
